<svg width="18" height="18" viewBox="0 0 18 18" fill="none" xmlns="http://www.w3.org/2000/svg">
<path d="M11.9218 15.7062C11.7008 15.7062 11.4862 15.6412 11.2977 15.5177L8.52814 13.6713H7.29937C7.14984 13.6713 7.00679 13.5998 6.91578 13.4827C6.82476 13.3592 6.79227 13.2031 6.83128 13.0602C6.87029 12.9041 6.88979 12.7481 6.88979 12.5791C6.88979 12.059 6.69475 11.5584 6.34368 11.1683C5.9471 10.7197 5.38148 10.4661 4.77686 10.4661C4.19824 10.4661 3.65862 10.6936 3.26204 11.1032C3.13852 11.2332 2.94998 11.2853 2.78095 11.2333C2.61192 11.1813 2.47539 11.0448 2.43638 10.8692C2.37137 10.5832 2.33887 10.2711 2.33887 9.93303V6.0322C2.33887 3.79575 3.84067 2.29395 6.07712 2.29395H12.5784C14.8149 2.29395 16.3167 3.79575 16.3167 6.0322V9.93303C16.3167 11.0187 15.9591 11.9549 15.2765 12.6375C14.7044 13.2096 13.9437 13.5543 13.066 13.6453V14.5685C13.066 14.9911 12.8319 15.3746 12.4614 15.5761C12.2858 15.6606 12.1038 15.7062 11.9218 15.7062H11.9218ZM7.85848 12.6895H8.67117C8.76869 12.6895 8.85971 12.7155 8.94422 12.774L11.8373 14.705C11.9023 14.7505 11.9673 14.7309 11.9998 14.7114C12.0324 14.6919 12.0909 14.6529 12.0909 14.5619V13.1771C12.0909 12.9106 12.3119 12.6895 12.5785 12.6895C13.4041 12.6895 14.0998 12.4295 14.5874 11.9419C15.0815 11.4478 15.3415 10.7521 15.3415 9.92646V6.0257C15.3415 4.34836 14.2558 3.26264 12.5785 3.26264H6.07714C4.3998 3.26264 3.31408 4.34836 3.31408 6.0257V9.84844C3.75617 9.6079 4.25678 9.48444 4.77688 9.48444C5.66106 9.48444 6.49972 9.86151 7.07184 10.5116C7.57894 11.0773 7.86501 11.8119 7.86501 12.5726C7.85851 12.6116 7.8585 12.6505 7.8585 12.6895H7.85848Z" fill="#333333" stroke="#292D32" stroke-width="0.3"/>
<path d="M4.77074 15.6611C4.00359 15.6611 3.27543 15.3751 2.70982 14.8615C2.48227 14.6664 2.28073 14.4259 2.1247 14.1593C1.83864 13.6912 1.68262 13.1386 1.68262 12.573C1.68262 11.7603 1.99468 10.9997 2.55379 10.4211C3.13891 9.81643 3.92557 9.48486 4.77074 9.48486C5.65492 9.48486 6.49359 9.86194 7.06571 10.5121C7.57281 11.0777 7.85887 11.8123 7.85887 12.573C7.85887 12.82 7.82637 13.0671 7.76136 13.3011C7.69634 13.5937 7.5728 13.8993 7.40377 14.1658C6.86416 15.089 5.84996 15.6611 4.77074 15.6611ZM4.77074 10.4601C4.19213 10.4601 3.65252 10.6876 3.25594 11.0972C2.87236 11.4938 2.65781 12.0139 2.65781 12.573C2.65781 12.9566 2.76184 13.3336 2.96338 13.6587C3.0674 13.8407 3.20392 14.0033 3.35995 14.1398C3.75003 14.4974 4.25064 14.6924 4.77074 14.6924C5.51839 14.6924 6.19453 14.3088 6.57811 13.6717C6.69513 13.4897 6.77314 13.2881 6.81865 13.0801C6.86416 12.9111 6.88367 12.7485 6.88367 12.5795C6.88367 12.0594 6.68863 11.5588 6.33756 11.1687C5.94748 10.7136 5.37537 10.4601 4.77074 10.4601Z" fill="#292D32" stroke="#292D32" stroke-width="0.3"/>
<path d="M5.7391 13.0477H3.79522C3.52866 13.0477 3.30762 12.8267 3.30762 12.5601C3.30762 12.2936 3.52866 12.0725 3.79522 12.0725H5.7391C6.00566 12.0725 6.2267 12.2936 6.2267 12.5601C6.2267 12.8267 6.01216 13.0477 5.7391 13.0477Z" fill="#292D32" stroke="#292D32" stroke-width="0.3"/>
<path d="M4.7708 14.0419C4.50425 14.0419 4.2832 13.8208 4.2832 13.5543V11.6104C4.2832 11.3438 4.50425 11.1228 4.7708 11.1228C5.03736 11.1228 5.2584 11.3438 5.2584 11.6104V13.5543C5.2584 13.8273 5.03736 14.0419 4.7708 14.0419Z" fill="#292D32" stroke="#292D32" stroke-width="0.3"/>
<path d="M11.5971 8.50962H7.04619C6.77964 8.50962 6.55859 8.28858 6.55859 8.02202C6.55859 7.75547 6.77964 7.53442 7.04619 7.53442H11.5971C11.8637 7.53442 12.0847 7.75547 12.0847 8.02202C12.0847 8.28858 11.8637 8.50962 11.5971 8.50962Z" fill="#292D32" stroke="#292D32" stroke-width="0.3"/>
</svg>
