<svg width="20" height="20" viewBox="0 0 20 20" fill="none" xmlns="http://www.w3.org/2000/svg">
<path fill-rule="evenodd" clip-rule="evenodd" d="M3.23828 9.99981C3.23828 9.48698 3.65402 9.07124 4.16685 9.07124L15.8335 9.07124C16.3464 9.07124 16.7621 9.48698 16.7621 9.99981C16.7621 10.5126 16.3464 10.9284 15.8335 10.9284L4.16685 10.9284C3.65402 10.9284 3.23828 10.5126 3.23828 9.99981Z" fill="white"/>
<path fill-rule="evenodd" clip-rule="evenodd" d="M10.0002 16.7617C9.48735 16.7617 9.07161 16.346 9.07161 15.8331L9.07161 4.16648C9.07161 3.65364 9.48735 3.23791 10.0002 3.23791C10.513 3.23791 10.9288 3.65364 10.9288 4.16648L10.9288 15.8331C10.9288 16.346 10.513 16.7617 10.0002 16.7617Z" fill="white"/>
</svg>
