<svg width="18" height="10" viewBox="0 0 18 10" fill="none" xmlns="http://www.w3.org/2000/svg">
<path d="M16.3129 0.837524C15.878 0.837524 15.5254 1.1901 15.5254 1.62502V2.32815C15.5254 3.97522 14.1981 5.33752 12.5863 5.33752H3.58908L4.49474 4.43187C4.80228 4.12433 4.80228 3.62572 4.49474 3.31818C4.1872 3.01064 3.68858 3.01064 3.38104 3.31818L1.13104 5.56818C0.823506 5.87572 0.823506 6.37433 1.13104 6.68187L3.38104 8.93187C3.68858 9.23941 4.1872 9.23941 4.49474 8.93187C4.80228 8.62433 4.80228 8.12571 4.49474 7.81818L3.58908 6.91252H12.5863C15.1067 6.91252 17.1004 4.80579 17.1004 2.32815V1.62502C17.1004 1.1901 16.7478 0.837524 16.3129 0.837524Z" fill="#333333"/>
</svg>
