<svg width="18" height="18" viewBox="0 0 18 18" fill="none" xmlns="http://www.w3.org/2000/svg">
<path d="M6.3177 3.74181V3.74181C5.94729 3.74181 5.64702 4.03608 5.64702 4.39909V14.2583L7.6443 12.4725V12.4725C8.41252 11.7856 9.58831 11.7856 10.3565 12.4725L12.3538 14.2583V4.39909C12.3538 4.03608 12.0535 3.74181 11.6831 3.74181H6.3177V3.74181ZM6.3177 2.42725H11.6831V2.42725C12.7943 2.42725 13.6952 3.31007 13.6952 4.39909V14.2583V14.258C13.6952 14.984 13.0946 15.5725 12.3538 15.5725C12.0194 15.5725 11.6971 15.4501 11.45 15.2293L9.45245 13.4433V13.4433C9.19638 13.2143 8.80445 13.2143 8.54838 13.4433L6.5511 15.2291H6.5511C6.00383 15.7184 5.15543 15.6803 4.65612 15.144C4.43073 14.9019 4.30574 14.586 4.30566 14.2583V4.39909V4.39909C4.30566 3.31007 5.20649 2.42725 6.3177 2.42725L6.3177 2.42725Z" fill="#333333"/>
</svg>
