<svg width="68" height="68" viewBox="0 0 68 68" fill="none" xmlns="http://www.w3.org/2000/svg">
<circle cx="34" cy="34" r="34" fill="#FFF7EF"/>
<path d="M40.7288 22.0435V19.8335C40.7288 19.2527 40.2471 18.771 39.6663 18.771C39.0855 18.771 38.6038 19.2527 38.6038 19.8335V21.9585H29.3955V19.8335C29.3955 19.2527 28.9138 18.771 28.333 18.771C27.7522 18.771 27.2705 19.2527 27.2705 19.8335V22.0435C23.4455 22.3977 21.5897 24.6785 21.3063 28.0643C21.278 28.4752 21.618 28.8152 22.0147 28.8152H45.9847C46.3955 28.8152 46.7355 28.461 46.693 28.0643C46.4097 24.6785 44.5538 22.3977 40.7288 22.0435H40.7288Z" fill="#F6891F"/>
<path d="M45.3333 30.9399H22.6667C21.8875 30.9399 21.25 31.5774 21.25 32.3566V41.0832C21.25 45.3332 23.375 48.1665 28.3333 48.1665H39.6667C44.625 48.1665 46.75 45.3332 46.75 41.0832V32.3566C46.75 31.5774 46.1125 30.9399 45.3333 30.9399ZM30.0475 42.7974C29.9767 42.8541 29.9058 42.9249 29.835 42.9674C29.75 43.024 29.665 43.0666 29.58 43.0949C29.495 43.1374 29.41 43.1657 29.325 43.1799C29.2258 43.194 29.1408 43.2082 29.0417 43.2082C28.8575 43.2082 28.6733 43.1657 28.5033 43.0949C28.3192 43.024 28.1775 42.9249 28.0358 42.7974C27.7808 42.5282 27.625 42.1599 27.625 41.7915C27.625 41.4232 27.7808 41.0549 28.0358 40.7857C28.1775 40.6582 28.3192 40.559 28.5033 40.4882C28.7583 40.3749 29.0417 40.3466 29.325 40.4032C29.41 40.4174 29.495 40.4457 29.58 40.4882C29.665 40.5166 29.75 40.5591 29.835 40.6157C29.9058 40.6724 29.9767 40.7291 30.0475 40.7857C30.3025 41.0549 30.4583 41.4232 30.4583 41.7915C30.4583 42.1599 30.3025 42.5282 30.0475 42.7974ZM30.0475 37.8391C29.7783 38.0941 29.41 38.2499 29.0417 38.2499C28.6733 38.2499 28.305 38.0941 28.0358 37.8391C27.7808 37.5699 27.625 37.2016 27.625 36.8332C27.625 36.4649 27.7808 36.0966 28.0358 35.8274C28.4325 35.4307 29.0558 35.3032 29.58 35.5299C29.7642 35.6007 29.92 35.6999 30.0475 35.8274C30.3025 36.0966 30.4583 36.4649 30.4583 36.8332C30.4583 37.2016 30.3025 37.5699 30.0475 37.8391ZM35.0058 42.7974C34.7367 43.0524 34.3683 43.2082 34 43.2082C33.6317 43.2082 33.2633 43.0524 32.9942 42.7974C32.7392 42.5282 32.5833 42.1599 32.5833 41.7915C32.5833 41.4232 32.7392 41.0549 32.9942 40.7857C33.5183 40.2616 34.4817 40.2616 35.0058 40.7857C35.2608 41.0549 35.4167 41.4232 35.4167 41.7915C35.4167 42.1599 35.2608 42.5282 35.0058 42.7974ZM35.0058 37.8391C34.935 37.8957 34.8642 37.9524 34.7933 38.0091C34.7083 38.0657 34.6233 38.1082 34.5383 38.1366C34.4533 38.1791 34.3683 38.2074 34.2833 38.2216C34.1842 38.2357 34.0992 38.2499 34 38.2499C33.6317 38.2499 33.2633 38.0941 32.9942 37.8391C32.7392 37.5699 32.5833 37.2016 32.5833 36.8332C32.5833 36.4649 32.7392 36.0966 32.9942 35.8274C33.1217 35.6999 33.2775 35.6007 33.4617 35.5299C33.9858 35.3032 34.6092 35.4307 35.0058 35.8274C35.2608 36.0966 35.4167 36.4649 35.4167 36.8332C35.4167 37.2016 35.2608 37.5699 35.0058 37.8391ZM39.9642 42.7974C39.695 43.0524 39.3267 43.2082 38.9583 43.2082C38.59 43.2082 38.2217 43.0524 37.9525 42.7974C37.6975 42.5282 37.5417 42.1599 37.5417 41.7915C37.5417 41.4232 37.6975 41.0549 37.9525 40.7857C38.4767 40.2616 39.44 40.2616 39.9642 40.7857C40.2192 41.0549 40.375 41.4232 40.375 41.7915C40.375 42.1599 40.2192 42.5282 39.9642 42.7974ZM39.9642 37.8391C39.8933 37.8957 39.8225 37.9524 39.7517 38.0091C39.6667 38.0657 39.5817 38.1082 39.4967 38.1366C39.4117 38.1791 39.3267 38.2074 39.2417 38.2216C39.1425 38.2357 39.0433 38.2499 38.9583 38.2499C38.59 38.2499 38.2217 38.0941 37.9525 37.8391C37.6975 37.5699 37.5417 37.2016 37.5417 36.8332C37.5417 36.4649 37.6975 36.0966 37.9525 35.8274C38.0942 35.6999 38.2358 35.6007 38.42 35.5299C38.675 35.4166 38.9583 35.3882 39.2417 35.4449C39.3267 35.4591 39.4117 35.4874 39.4967 35.5299C39.5817 35.5582 39.6667 35.6007 39.7517 35.6574C39.8225 35.7141 39.8933 35.7707 39.9642 35.8274C40.2192 36.0966 40.375 36.4649 40.375 36.8332C40.375 37.2016 40.2192 37.5699 39.9642 37.8391Z" fill="#F6891F"/>
</svg>
