<svg width="68" height="68" viewBox="0 0 68 68" fill="none" xmlns="http://www.w3.org/2000/svg">
<circle cx="34" cy="34" r="34" fill="#FFF7EF"/>
<path d="M29.7487 19.8335C26.037 19.8335 23.0195 22.851 23.0195 26.5627C23.0195 30.2035 25.867 33.1502 29.5787 33.2777C29.692 33.2635 29.8054 33.2635 29.8904 33.2777C29.9187 33.2777 29.9329 33.2777 29.9612 33.2777C29.9754 33.2777 29.9754 33.2777 29.9895 33.2777C33.6162 33.1502 36.4637 30.2035 36.4779 26.5627C36.4779 22.851 33.4604 19.8335 29.7487 19.8335Z" fill="#F6891F"/>
<path d="M36.9473 37.0446C32.9948 34.4096 26.5491 34.4096 22.5682 37.0446C20.769 38.2488 19.7773 39.8779 19.7773 41.6204C19.7773 43.3629 20.769 44.9779 22.554 46.1679C24.5373 47.4996 27.144 48.1654 29.7507 48.1654C32.3573 48.1654 34.964 47.4996 36.9473 46.1679C38.7323 44.9638 39.7239 43.3488 39.7239 41.5921C39.7098 39.8496 38.7323 38.2346 36.9473 37.0446H36.9473Z" fill="#F6891F"/>
<path d="M45.3183 27.3957C45.545 30.144 43.5899 32.5523 40.8841 32.8781C40.8699 32.8781 40.8699 32.8781 40.8558 32.8781H40.8133C40.7283 32.8781 40.6433 32.8781 40.5724 32.9065C39.1983 32.9773 37.9374 32.5381 36.9883 31.7306C38.4474 30.4274 39.2833 28.4724 39.1133 26.3474C39.0141 25.1999 38.6174 24.1515 38.0224 23.259C38.5608 22.9899 39.1841 22.8199 39.8216 22.7632C42.5983 22.5224 45.0775 24.5907 45.3183 27.3957Z" fill="#F6891F"/>
<path d="M48.1556 40.5032C48.0423 41.8774 47.1639 43.0674 45.6906 43.8749C44.2739 44.6541 42.4889 45.0224 40.7181 44.9799C41.7381 44.0591 42.3331 42.9116 42.4464 41.6932C42.5881 39.9366 41.7523 38.2507 40.0806 36.9049C39.1314 36.1541 38.0264 35.5591 36.8223 35.1199C39.9531 34.2132 43.8914 34.8224 46.3139 36.7774C47.6173 37.8257 48.2831 39.1432 48.1556 40.5032Z" fill="#F6891F"/>
</svg>
