<svg width="68" height="68" viewBox="0 0 68 68" fill="none" xmlns="http://www.w3.org/2000/svg">
<circle cx="34" cy="34" r="34" fill="#FFF7EF"/>
<path d="M28.6875 25.146C28.1067 25.146 27.625 24.6643 27.625 24.0835V19.8335C27.625 19.2527 28.1067 18.771 28.6875 18.771C29.2683 18.771 29.75 19.2527 29.75 19.8335V24.0835C29.75 24.6643 29.2683 25.146 28.6875 25.146Z" fill="#F6891F"/>
<path d="M39.3125 25.146C38.7317 25.146 38.25 24.6643 38.25 24.0835V19.8335C38.25 19.2527 38.7317 18.771 39.3125 18.771C39.8933 18.771 40.375 19.2527 40.375 19.8335V24.0835C40.375 24.6643 39.8933 25.146 39.3125 25.146Z" fill="#F6891F"/>
<path d="M33.9996 36.961C34.7363 36.961 35.2746 36.5218 35.2746 35.8277C35.2746 35.1193 34.7363 34.7085 33.9996 34.7085C33.2629 34.7085 32.7246 35.1193 32.7246 35.8277C32.7246 36.5218 33.2629 36.961 33.9996 36.961Z" fill="#F6891F"/>
<path d="M33.9978 41.0842C34.8897 41.0842 35.6128 40.4943 35.6128 39.7667C35.6128 39.0391 34.8897 38.4492 33.9978 38.4492C33.1059 38.4492 32.3828 39.0391 32.3828 39.7667C32.3828 40.4943 33.1059 41.0842 33.9978 41.0842Z" fill="#F6891F"/>
<path d="M44.7235 23.3752C43.7885 22.681 42.4427 23.3468 42.4427 24.5227V24.6643C42.4427 26.3218 41.2527 27.8518 39.5952 28.0218C37.6827 28.2202 36.0677 26.7185 36.0677 24.8485V23.3752C36.0677 22.596 35.4302 21.9585 34.651 21.9585H33.3477C32.5685 21.9585 31.931 22.596 31.931 23.3752V24.8485C31.931 25.9677 31.3502 26.9593 30.4718 27.5118C30.3443 27.5968 30.2027 27.6677 30.061 27.7385C29.9335 27.8093 29.7918 27.866 29.636 27.9085C29.466 27.9652 29.2818 28.0077 29.0835 28.0218C28.8568 28.0502 28.6302 28.0502 28.4035 28.0218C28.2052 28.0077 28.021 27.9652 27.851 27.9085C27.7093 27.866 27.5677 27.8093 27.426 27.7385C27.2843 27.6677 27.1427 27.5968 27.0152 27.5118C26.1227 26.8885 25.556 25.8118 25.556 24.6643V24.5227C25.556 23.4318 24.3943 22.7802 23.4735 23.2477C23.4593 23.2618 23.4452 23.2618 23.431 23.276C23.3743 23.3043 23.3318 23.3327 23.2752 23.3752C23.2327 23.4177 23.176 23.446 23.1335 23.4885C22.7368 23.8002 22.3827 24.1543 22.0852 24.5368C21.9293 24.7068 21.8018 24.891 21.6885 25.0752C21.6743 25.0893 21.6602 25.1035 21.646 25.1318C21.5185 25.316 21.4052 25.5285 21.306 25.7268C21.2777 25.7552 21.2635 25.7693 21.2635 25.7977C21.1785 25.9677 21.0935 26.1377 21.0368 26.3218C20.9943 26.3927 20.9802 26.4493 20.9518 26.5202C20.8668 26.7327 20.8102 26.9452 20.7535 27.1577C20.6968 27.356 20.6543 27.5685 20.626 27.781C20.5977 27.9368 20.5835 28.0927 20.5693 28.2627C20.5552 28.461 20.541 28.6593 20.541 28.8577V41.2677C20.541 45.0785 23.6293 48.1668 27.4402 48.1668H40.5585C44.3693 48.1668 47.4577 45.0785 47.4577 41.2677V28.8577C47.4577 26.6052 46.381 24.636 44.7235 23.3752ZM33.9993 42.8543C31.8035 42.8543 30.4577 41.7635 30.4577 40.0068C30.4577 39.0435 30.9535 38.2077 31.8177 37.7118C31.1943 37.2727 30.7835 36.621 30.7835 35.7285C30.7835 33.8868 32.2568 32.9377 33.9993 32.9377C35.7418 32.9377 37.201 33.8868 37.201 35.7285C37.201 36.621 36.8043 37.2727 36.1668 37.7118C37.0452 38.2077 37.541 39.0435 37.541 40.0068C37.541 41.7635 36.181 42.8543 33.9993 42.8543Z" fill="#F6891F"/>
</svg>
