<svg width="18" height="18" viewBox="0 0 18 18" fill="none" xmlns="http://www.w3.org/2000/svg">
<path d="M3.74438 8.26188C3.33017 8.26188 2.99438 7.9261 2.99438 7.51188C2.99438 7.24383 3.135 7.00863 3.34649 6.87601L5.3622 4.86029C5.65509 4.5674 6.12997 4.5674 6.42286 4.86029C6.71576 5.15319 6.71576 5.62806 6.42286 5.92096L5.58194 6.76188L11.2444 6.76187C11.6586 6.76187 11.9944 7.09766 11.9944 7.51188C11.9944 7.9261 11.6586 8.26188 11.2444 8.26188H3.78147C3.77463 8.26195 3.76779 8.26195 3.76095 8.26188H3.74438Z" fill="#333333"/>
<path d="M14.2556 9.73785C14.6698 9.73785 15.0056 10.0736 15.0056 10.4878C15.0056 10.7559 14.865 10.9911 14.6535 11.1237L12.6378 13.1394C12.3449 13.4323 11.8701 13.4323 11.5771 13.1394C11.2842 12.8465 11.2842 12.3716 11.5771 12.0787L12.4181 11.2378H6.75562C6.3414 11.2378 6.00562 10.9021 6.00562 10.4878C6.00562 10.0736 6.3414 9.73785 6.75562 9.73785H14.2185C14.2254 9.73777 14.2322 9.73777 14.2391 9.73785H14.2556Z" fill="#333333"/>
</svg>
