<svg width="20" height="20" viewBox="0 0 20 20" fill="none" xmlns="http://www.w3.org/2000/svg">
<path d="M10.6 10.6H13V10.6C13.3314 10.6 13.6 10.3314 13.6 10C13.6 9.66863 13.3314 9.4 13 9.4H10.6V7C10.6 6.66863 10.3314 6.4 10 6.4C9.66863 6.4 9.4 6.66863 9.4 7V9.4H7V9.4C6.66863 9.4 6.4 9.66863 6.4 10C6.4 10.3314 6.66863 10.6 7 10.6H9.4V13V13C9.4 13.3314 9.66863 13.6 10 13.6C10.3314 13.6 10.6 13.3314 10.6 13V10.6V10.6ZM10 16C6.6862 16 4 13.3138 4 10C4 6.6862 6.6862 4 10 4C13.3138 4 16 6.6862 16 10C16 13.3138 13.3138 16 10 16Z" fill="#1F75F6"/>
</svg>
