<svg width="20" height="20" viewBox="0 0 20 20" fill="none" xmlns="http://www.w3.org/2000/svg">
<path d="M11.0949 9.91676L14.0407 6.97009V6.97009C14.3717 6.65036 14.3809 6.1228 14.0612 5.79176C13.7414 5.46072 13.2139 5.45155 12.8828 5.77128C12.8759 5.77799 12.8691 5.78482 12.8624 5.79176L9.91568 8.7376L6.96985 5.79176V5.79176C6.65012 5.46072 6.12256 5.45155 5.79152 5.77128C5.46047 6.09101 5.4513 6.61857 5.77104 6.94961C5.77774 6.95656 5.78457 6.96339 5.79152 6.97009L8.73735 9.91593L5.79152 12.8626H5.79152C5.46047 13.1823 5.4513 13.7099 5.77104 14.0409C6.09077 14.372 6.61833 14.3811 6.94937 14.0614C6.95632 14.0547 6.96314 14.0479 6.96985 14.0409L9.91568 11.0951L12.8624 14.0409V14.0409C13.1821 14.372 13.7096 14.3811 14.0407 14.0614C14.3717 13.7417 14.3809 13.2141 14.0612 12.8831C14.0545 12.8761 14.0476 12.8693 14.0407 12.8626L11.0949 9.91593V9.91676Z" fill="#333333"/>
</svg>
