<svg width="32" height="40" viewBox="0 0 32 40" fill="none" xmlns="http://www.w3.org/2000/svg">
<path fill-rule="evenodd" clip-rule="evenodd" d="M22 0H6C4.4087 0 2.88258 0.632141 1.75736 1.75736C0.632141 2.88258 0 4.4087 0 6V34C0 35.5913 0.632141 37.1174 1.75736 38.2426C2.88258 39.3679 4.4087 40 6 40H26C27.5913 40 29.1174 39.3679 30.2426 38.2426C31.3679 37.1174 32 35.5913 32 34V8L22 0ZM15.8784 23.2355C15.4104 23.2355 14.9844 23.1455 14.6004 22.9655C14.2224 22.7795 13.8954 22.5365 13.6194 22.2365C13.3494 21.9305 13.1394 21.5825 12.9894 21.1925C12.8394 20.8025 12.7644 20.4035 12.7644 19.9955C12.7644 19.5695 12.8424 19.1615 12.9984 18.7715C13.1604 18.3815 13.3794 18.0365 13.6554 17.7365C13.9374 17.4365 14.2704 17.1995 14.6544 17.0255C15.0384 16.8455 15.4554 16.7555 15.9054 16.7555C16.3674 16.7555 16.7874 16.8515 17.1654 17.0435C17.5494 17.2295 17.8764 17.4755 18.1464 17.7815C18.4164 18.0875 18.6264 18.4355 18.7764 18.8255C18.9264 19.2155 19.0014 19.6115 19.0014 20.0135C19.0014 20.4395 18.9234 20.8475 18.7674 21.2375C18.6114 21.6215 18.3954 21.9635 18.1194 22.2635C17.8434 22.5575 17.5134 22.7945 17.1294 22.9745C16.7454 23.1485 16.3284 23.2355 15.8784 23.2355ZM14.0244 19.9955C14.0244 20.2715 14.0664 20.5385 14.1504 20.7965C14.2344 21.0545 14.3544 21.2825 14.5104 21.4805C14.6724 21.6785 14.8674 21.8375 15.0954 21.9575C15.3294 22.0775 15.5934 22.1375 15.8874 22.1375C16.1874 22.1375 16.4514 22.0775 16.6794 21.9575C16.9134 21.8315 17.1084 21.6665 17.2644 21.4625C17.4264 21.2585 17.5464 21.0305 17.6244 20.7785C17.7084 20.5205 17.7504 20.2595 17.7504 19.9955C17.7504 19.7195 17.7054 19.4525 17.6154 19.1945C17.5314 18.9365 17.4084 18.7085 17.2464 18.5105C17.0904 18.3125 16.8954 18.1565 16.6614 18.0425C16.4334 17.9225 16.1754 17.8625 15.8874 17.8625C15.5874 17.8625 15.3204 17.9255 15.0864 18.0515C14.8524 18.1715 14.6574 18.3335 14.5014 18.5375C14.3454 18.7355 14.2254 18.9635 14.1414 19.2215C14.0634 19.4735 14.0244 19.7315 14.0244 19.9955ZM6.70898 23.1905V16.8005H9.03098C9.55298 16.8005 10.009 16.8845 10.399 17.0525C10.795 17.2205 11.125 17.4485 11.389 17.7365C11.653 18.0245 11.851 18.3635 11.983 18.7535C12.115 19.1375 12.181 19.5485 12.181 19.9865C12.181 20.4725 12.106 20.9135 11.956 21.3095C11.812 21.6995 11.602 22.0355 11.326 22.3175C11.05 22.5935 10.717 22.8095 10.327 22.9655C9.94298 23.1155 9.51098 23.1905 9.03098 23.1905H6.70898ZM10.93 19.9865C10.93 19.6805 10.888 19.3985 10.804 19.1405C10.72 18.8825 10.597 18.6605 10.435 18.4745C10.273 18.2885 10.072 18.1445 9.83198 18.0425C9.59798 17.9405 9.33098 17.8895 9.03098 17.8895H7.95098V22.1015H9.03098C9.33698 22.1015 9.60699 22.0475 9.84098 21.9395C10.081 21.8315 10.279 21.6845 10.435 21.4985C10.597 21.3065 10.72 21.0815 10.804 20.8235C10.888 20.5655 10.93 20.2865 10.93 19.9865ZM19.7741 18.7985C19.6361 19.1765 19.5671 19.5605 19.5671 19.9505C19.5671 20.3585 19.6421 20.7605 19.7921 21.1565C19.9481 21.5465 20.1611 21.8975 20.4311 22.2095C20.7071 22.5155 21.0341 22.7645 21.4121 22.9565C21.7901 23.1485 22.2071 23.2445 22.6631 23.2445C22.9211 23.2445 23.1851 23.2115 23.4551 23.1455C23.7251 23.0795 23.9771 22.9835 24.2111 22.8575C24.4511 22.7315 24.6641 22.5785 24.8501 22.3985C25.0421 22.2125 25.1891 21.9995 25.2911 21.7595L24.2741 21.1745C24.2021 21.3485 24.1061 21.4985 23.9861 21.6245C23.8661 21.7445 23.7341 21.8435 23.5901 21.9215C23.4521 21.9995 23.3051 22.0565 23.1491 22.0925C22.9931 22.1285 22.8431 22.1465 22.6991 22.1465C22.4231 22.1465 22.1681 22.0865 21.9341 21.9665C21.7061 21.8465 21.5081 21.6875 21.3401 21.4895C21.1781 21.2915 21.0521 21.0635 20.9621 20.8055C20.8721 20.5415 20.8271 20.2685 20.8271 19.9865C20.8271 19.7345 20.8661 19.4825 20.9441 19.2305C21.0221 18.9725 21.1361 18.7445 21.2861 18.5465C21.4421 18.3425 21.6341 18.1775 21.8621 18.0515C22.0961 17.9255 22.3691 17.8625 22.6811 17.8625C22.8251 17.8625 22.9721 17.8805 23.1221 17.9165C23.2721 17.9465 23.4161 17.9975 23.5541 18.0695C23.6921 18.1415 23.8211 18.2405 23.9411 18.3665C24.0611 18.4865 24.1631 18.6365 24.2471 18.8165L25.2011 18.1595C24.9911 17.7455 24.6701 17.4095 24.2381 17.1515C23.8121 16.8935 23.3051 16.7645 22.7171 16.7645C22.2191 16.7645 21.7751 16.8575 21.3851 17.0435C20.9951 17.2295 20.6651 17.4725 20.3951 17.7725C20.1251 18.0725 19.9181 18.4145 19.7741 18.7985Z" fill="#FFBE0B"/>
</svg>
