<svg width="12" height="12" viewBox="0 0 12 12" fill="none" xmlns="http://www.w3.org/2000/svg">
<path d="M6.75 5.73075L7.59075 4.89075C7.7321 4.75403 7.9215 4.6783 8.11815 4.67986C8.3148 4.68143 8.50297 4.76018 8.64213 4.89913C8.78128 5.03809 8.86029 5.22615 8.86214 5.4228C8.86399 5.61945 8.78852 5.80895 8.652 5.9505L6.53025 8.07225C6.46076 8.14214 6.37814 8.1976 6.28714 8.23545C6.19614 8.27329 6.09856 8.29278 6 8.29278C5.90144 8.29278 5.80386 8.27329 5.71286 8.23545C5.62186 8.1976 5.53924 8.14214 5.46975 8.07225L3.348 5.9505C3.27837 5.88077 3.22315 5.798 3.1855 5.70693C3.14785 5.61586 3.12851 5.51827 3.12858 5.41972C3.12865 5.32117 3.14813 5.22361 3.18591 5.13259C3.22368 5.04157 3.27902 4.95888 3.34875 4.88925C3.41848 4.81962 3.50125 4.7644 3.59232 4.72675C3.68339 4.6891 3.78098 4.66976 3.87953 4.66983C3.97808 4.6699 4.07564 4.68938 4.16666 4.72716C4.25768 4.76493 4.34037 4.82027 4.41 4.89L5.25 5.73075V1.5C5.25 1.30109 5.32902 1.11032 5.46967 0.96967C5.61032 0.829018 5.80109 0.75 6 0.75C6.19891 0.75 6.38968 0.829018 6.53033 0.96967C6.67098 1.11032 6.75 1.30109 6.75 1.5V5.73075ZM1.5 9.75H10.5C10.6989 9.75 10.8897 9.82902 11.0303 9.96967C11.171 10.1103 11.25 10.3011 11.25 10.5C11.25 10.6989 11.171 10.8897 11.0303 11.0303C10.8897 11.171 10.6989 11.25 10.5 11.25H1.5C1.30109 11.25 1.11032 11.171 0.96967 11.0303C0.829018 10.8897 0.75 10.6989 0.75 10.5C0.75 10.3011 0.829018 10.1103 0.96967 9.96967C1.11032 9.82902 1.30109 9.75 1.5 9.75Z" fill="#8492A6"/>
</svg>

