<svg width="18" height="18" viewBox="0 0 18 18" fill="none" xmlns="http://www.w3.org/2000/svg">
<path d="M10.9326 6.10506L4.78401 12.2516L4.38195 13.6226L5.72556 13.2343L11.8946 7.06737L10.9326 6.10506ZM11.9817 5.05639L12.9436 6.01801L13.8403 5.12168C13.9731 4.98889 13.9731 4.77365 13.8403 4.64086L13.3586 4.16005C13.2258 4.0273 13.0105 4.02731 12.8776 4.16005L11.9824 5.05639H11.9817ZM14.3213 3.19842L14.8022 3.67924C15.4662 4.34316 15.4662 5.41938 14.8022 6.0833L6.43988 14.4435L3.56898 15.2732C3.20796 15.3772 2.83092 15.169 2.72682 14.8081C2.69111 14.6843 2.69132 14.5529 2.72744 14.4292L3.57646 11.5355L11.917 3.19774V3.19774C12.5812 2.53402 13.6578 2.53402 14.3219 3.19774L14.3213 3.19842Z" fill="#333333"/>
</svg>
