<svg width="14" height="18" viewBox="0 0 14 18" fill="none" xmlns="http://www.w3.org/2000/svg">
<path fill-rule="evenodd" clip-rule="evenodd" d="M7.89026 0.830055C7.51888 0.458761 7.0152 0.250079 6.49005 0.25H2.69186C1.25804 0.25 0.0957029 1.41234 0.0957031 2.84615V15.1538C0.0957031 16.5877 1.25804 17.75 2.69186 17.75H11.3072C12.7411 17.75 13.9034 16.5877 13.9034 15.1538V7.66346C13.9033 7.13831 13.6946 6.63451 13.3233 6.26313L7.89026 0.830055ZM1.5957 2.84615C1.5957 2.24076 2.08647 1.75 2.69186 1.75H6.48982C6.61721 1.75005 6.73949 1.80066 6.8296 1.89071L12.2627 7.32379C12.3527 7.4139 12.4033 7.53618 12.4034 7.66358V15.1538C12.4034 15.7592 11.9126 16.25 11.3072 16.25H2.69186C2.08647 16.25 1.5957 15.7592 1.5957 15.1538V2.84615Z" fill="#F6891F"/>
<path fill-rule="evenodd" clip-rule="evenodd" d="M7 0.557617C7.41421 0.557617 7.75 0.893404 7.75 1.30762V5.923C7.75 6.18852 7.96525 6.40377 8.23077 6.40377H12.8462C13.2604 6.40377 13.5962 6.73956 13.5962 7.15377C13.5962 7.56798 13.2604 7.90377 12.8462 7.90377H8.23077C7.13682 7.90377 6.25 7.01695 6.25 5.923V1.30762C6.25 0.893404 6.58579 0.557617 7 0.557617Z" fill="#F6891F"/>
<path fill-rule="evenodd" clip-rule="evenodd" d="M3.17285 10.231C3.17285 9.81674 3.50864 9.48096 3.92285 9.48096H10.0767C10.4909 9.48096 10.8267 9.81674 10.8267 10.231C10.8267 10.6452 10.4909 10.981 10.0767 10.981H3.92285C3.50864 10.981 3.17285 10.6452 3.17285 10.231Z" fill="#F6891F"/>
<path fill-rule="evenodd" clip-rule="evenodd" d="M3.17285 13.3076C3.17285 12.8934 3.50864 12.5576 3.92285 12.5576H10.0767C10.4909 12.5576 10.8267 12.8934 10.8267 13.3076C10.8267 13.7218 10.4909 14.0576 10.0767 14.0576H3.92285C3.50864 14.0576 3.17285 13.7218 3.17285 13.3076Z" fill="#F6891F"/>
</svg>
