<svg width="14" height="14" viewBox="0 0 14 14" fill="none" xmlns="http://www.w3.org/2000/svg">
<path d="M6.9998 13.5506C3.38191 13.5506 0.449219 10.6179 0.449219 7.00004C0.449219 3.38216 3.38191 0.449463 6.9998 0.449463C10.6177 0.449463 13.5504 3.38216 13.5504 7.00004C13.5504 10.6179 10.6177 13.5506 6.9998 13.5506ZM6.9998 12.2405C8.38966 12.2405 9.72259 11.6884 10.7054 10.7056C11.6881 9.72284 12.2403 8.3899 12.2403 7.00004C12.2403 5.61019 11.6881 4.27725 10.7054 3.29448C9.72259 2.3117 8.38966 1.75958 6.9998 1.75958C5.60994 1.75958 4.27701 2.3117 3.29423 3.29448C2.31145 4.27725 1.75934 5.61019 1.75934 7.00004C1.75934 8.3899 2.31145 9.72284 3.29423 10.7056C4.27701 11.6884 5.60994 12.2405 6.9998 12.2405ZM6.9998 5.68993C7.17353 5.68993 7.34015 5.75894 7.463 5.88179C7.58584 6.00464 7.65486 6.17125 7.65486 6.34499V9.62028C7.65486 9.79401 7.58584 9.96063 7.463 10.0835C7.34015 10.2063 7.17353 10.2753 6.9998 10.2753C6.82607 10.2753 6.65945 10.2063 6.5366 10.0835C6.41376 9.96063 6.34474 9.79401 6.34474 9.62028V6.34499C6.34474 6.17125 6.41376 6.00464 6.5366 5.88179C6.65945 5.75894 6.82607 5.68993 6.9998 5.68993ZM6.9998 5.03487C6.82607 5.03487 6.65945 4.96586 6.5366 4.84301C6.41376 4.72016 6.34474 4.55354 6.34474 4.37981C6.34474 4.20608 6.41376 4.03946 6.5366 3.91662C6.65945 3.79377 6.82607 3.72475 6.9998 3.72475C7.17353 3.72475 7.34015 3.79377 7.463 3.91662C7.58584 4.03946 7.65486 4.20608 7.65486 4.37981C7.65486 4.55354 7.58584 4.72016 7.463 4.84301C7.34015 4.96586 7.17353 5.03487 6.9998 5.03487Z" fill="#C0CCDA"/>
</svg>
