<svg width="18" height="18" viewBox="0 0 18 18" fill="none" xmlns="http://www.w3.org/2000/svg">
<path fill-rule="evenodd" clip-rule="evenodd" d="M5.8164 3.28325C5.31412 3.28325 4.90693 3.70982 4.90693 4.23603V13.7638C4.90693 14.29 5.31412 14.7166 5.8164 14.7166H12.1827C12.685 14.7166 13.0922 14.29 13.0922 13.7638V8.04715H9.90902C9.15559 8.04715 8.54482 7.40728 8.54482 6.61798V3.28325H5.8164ZM9.45429 3.95696L12.4491 7.09437H9.90902C9.65788 7.09437 9.45429 6.88108 9.45429 6.61798V3.95696ZM3.99746 4.23603C3.99746 3.18361 4.81183 2.33047 5.8164 2.33047H8.62304C8.98473 2.33053 9.33159 2.48105 9.58737 2.74895L13.6022 6.95495C13.8579 7.22291 14.0016 7.58629 14.0016 7.96519V13.7638C14.0016 14.8162 13.1873 15.6694 12.1827 15.6694H5.8164C4.81183 15.6694 3.99746 14.8162 3.99746 13.7638V4.23603ZM6.27114 9.9527C6.27114 9.6896 6.47473 9.47631 6.72587 9.47631H11.2732C11.5244 9.47631 11.728 9.6896 11.728 9.9527C11.728 10.2158 11.5244 10.4291 11.2732 10.4291H6.72587C6.47473 10.4291 6.27114 10.2158 6.27114 9.9527ZM6.27114 12.3347C6.27114 12.0715 6.47473 11.8583 6.72587 11.8583H11.2732C11.5244 11.8583 11.728 12.0715 11.728 12.3347C11.728 12.5978 11.5244 12.811 11.2732 12.811H6.72587C6.47473 12.811 6.27114 12.5978 6.27114 12.3347Z" fill="#333333"/>
<path fill-rule="evenodd" clip-rule="evenodd" d="M3.77246 4.23603C3.77246 3.06933 4.67782 2.10547 5.8164 2.10547H8.62304C9.04785 2.10554 9.45303 2.28242 9.7501 2.59357L13.7649 6.79959C14.0616 7.11045 14.2266 7.52989 14.2266 7.96516V13.7638C14.2266 14.9305 13.3213 15.8944 12.1827 15.8944H5.8164C4.67782 15.8944 3.77246 14.9305 3.77246 13.7638V4.23603ZM5.8164 2.55547C4.94584 2.55547 4.22246 3.2979 4.22246 4.23603V13.7638C4.22246 14.7019 4.94584 15.4444 5.8164 15.4444H12.1827C13.0533 15.4444 13.7766 14.7019 13.7766 13.7638V7.96523C13.7766 7.96522 13.7766 7.96524 13.7766 7.96523C13.7766 7.64269 13.6542 7.33534 13.4394 7.11029L9.42465 2.90434M5.8164 2.55547H8.62301H5.8164ZM8.62301 2.55547C8.623 2.55547 8.62302 2.55547 8.62301 2.55547V2.55547ZM5.8164 3.50825C5.44813 3.50825 5.13193 3.82411 5.13193 4.23603V13.7638C5.13193 14.1757 5.44813 14.4916 5.8164 14.4916H12.1827C12.551 14.4916 12.8672 14.1757 12.8672 13.7638V8.27215H9.90902C9.02158 8.27215 8.31982 7.52157 8.31982 6.61798V3.50825H5.8164ZM4.68193 4.23603C4.68193 3.59554 5.1801 3.05825 5.8164 3.05825H8.54482C8.66908 3.05825 8.76982 3.15898 8.76982 3.28325V6.61798C8.76982 7.293 9.28961 7.82214 9.90902 7.82214H13.0922C13.2164 7.82214 13.3172 7.92288 13.3172 8.04715V13.7638C13.3172 14.4043 12.819 14.9416 12.1827 14.9416H5.8164C5.1801 14.9416 4.68193 14.4043 4.68193 13.7638V4.23603ZM9.37061 3.74811C9.45597 3.7139 9.55355 3.73509 9.61704 3.80161L12.6118 6.93901C12.674 7.00415 12.6914 7.10009 12.6559 7.18288C12.6205 7.26567 12.5391 7.31937 12.4491 7.31937H9.90902C9.52387 7.31937 9.22929 6.99536 9.22929 6.61798V3.95696C9.22929 3.86501 9.28525 3.78231 9.37061 3.74811ZM9.67929 4.51854V6.61798C9.67929 6.76679 9.79189 6.86937 9.90902 6.86937H11.9233L9.67929 4.51854ZM6.04614 9.9527C6.04614 9.57532 6.34072 9.25131 6.72587 9.25131H11.2732C11.6584 9.25131 11.953 9.57532 11.953 9.9527C11.953 10.3301 11.6584 10.6541 11.2732 10.6541H6.72587C6.34072 10.6541 6.04614 10.3301 6.04614 9.9527ZM6.72587 9.70131C6.60874 9.70131 6.49614 9.80389 6.49614 9.9527C6.49614 10.1015 6.60874 10.2041 6.72587 10.2041H11.2732C11.3904 10.2041 11.503 10.1015 11.503 9.9527C11.503 9.80389 11.3904 9.70131 11.2732 9.70131H6.72587ZM6.04614 12.3347C6.04614 11.9573 6.34072 11.6333 6.72587 11.6333H11.2732C11.6584 11.6333 11.953 11.9573 11.953 12.3347C11.953 12.712 11.6584 13.036 11.2732 13.036H6.72587C6.34072 13.036 6.04614 12.712 6.04614 12.3347ZM6.72587 12.0833C6.60874 12.0833 6.49614 12.1858 6.49614 12.3347C6.49614 12.4835 6.60874 12.586 6.72587 12.586H11.2732C11.3904 12.586 11.503 12.4835 11.503 12.3347C11.503 12.1858 11.3904 12.0833 11.2732 12.0833H6.72587Z" fill="#333333"/>
</svg>
