<svg width="24" height="24" viewBox="0 0 24 24" fill="none" xmlns="http://www.w3.org/2000/svg">
<path d="M15.2348 10.9423H10.143C9.6446 10.9423 9.24055 11.3463 9.24055 11.8448C9.24055 12.3432 9.6446 12.7472 10.143 12.7472H15.2348L14.2222 13.7598C13.8698 14.1125 13.87 14.684 14.2227 15.0364C14.5753 15.3888 15.1468 15.3886 15.4992 15.0359L18.0514 12.4837C18.4041 12.1336 18.4061 11.5639 18.056 11.2113C18.0545 11.2097 18.053 11.2082 18.0514 11.2067L15.5001 8.65451C15.1478 8.30187 14.5762 8.30167 14.2236 8.65405C13.871 9.00644 13.8707 9.57797 14.2231 9.93061L15.2348 10.9423V10.9423ZM6.58365 3.87769C6.08523 3.87769 5.68118 4.28174 5.68118 4.78016V19.2198C5.68118 19.7182 6.08523 20.1223 6.58365 20.1223C7.08208 20.1223 7.48613 19.7182 7.48613 19.2198V4.78016V4.78016C7.48613 4.28174 7.08208 3.87769 6.58365 3.87769V3.87769Z" fill="#333333"/>
</svg>
