<svg width="14" height="14" viewBox="0 0 14 14" fill="none" xmlns="http://www.w3.org/2000/svg">
<path fill-rule="evenodd" clip-rule="evenodd" d="M13.0063 0.993444C13.2658 1.25291 13.2658 1.67358 13.0063 1.93304L6.91601 8.02335C6.65654 8.28282 6.23587 8.28282 5.97641 8.02335C5.71695 7.76389 5.71695 7.34322 5.97641 7.08375L12.0667 0.993444C12.3262 0.733981 12.7469 0.733981 13.0063 0.993444Z" fill="#333333"/>
<path fill-rule="evenodd" clip-rule="evenodd" d="M13.0063 0.993444C13.1868 1.17392 13.2479 1.44183 13.1636 1.68273L9.28796 12.756C9.19797 13.0131 8.96014 13.1893 8.68795 13.2004C8.41576 13.2115 8.16437 13.0553 8.05373 12.8064L5.94286 8.0569L1.19339 5.94603C0.944455 5.83539 0.788279 5.584 0.799384 5.31181C0.810488 5.03962 0.986623 4.80179 1.24374 4.7118L12.317 0.836147C12.5579 0.751831 12.8258 0.812969 13.0063 0.993444ZM3.26446 5.41238L6.71605 6.94642C6.86635 7.01322 6.98654 7.13341 7.05334 7.28371L8.58738 10.7353L11.4536 2.54619L3.26446 5.41238Z" fill="#333333"/>
</svg>
