<svg width="20" height="20" viewBox="0 0 20 20" fill="none" xmlns="http://www.w3.org/2000/svg">
<path d="M11.6663 5.00016C11.6663 5.92064 10.9202 6.66683 9.99967 6.66683C9.07917 6.66683 8.33301 5.92064 8.33301 5.00016C8.33301 4.07969 9.07917 3.3335 9.99967 3.3335C10.9202 3.3335 11.6663 4.07969 11.6663 5.00016Z" fill="#333333"/>
<path d="M11.6663 10.0002C11.6663 10.9207 10.9202 11.6668 9.99967 11.6668C9.07917 11.6668 8.33301 10.9207 8.33301 10.0002C8.33301 9.07966 9.07917 8.3335 9.99967 8.3335C10.9202 8.3335 11.6663 9.07966 11.6663 10.0002Z" fill="#333333"/>
<path d="M11.6663 15.0002C11.6663 15.9207 10.9202 16.6668 9.99967 16.6668C9.07917 16.6668 8.33301 15.9207 8.33301 15.0002C8.33301 14.0797 9.07917 13.3335 9.99967 13.3335C10.9202 13.3335 11.6663 14.0797 11.6663 15.0002Z" fill="#333333"/>
</svg>
