<svg width="19" height="18" viewBox="0 0 19 18" fill="none" xmlns="http://www.w3.org/2000/svg">
<path d="M13.6139 8.39948L12.9768 7.76245V7.76245C12.7548 7.54056 12.7547 7.18067 12.9766 6.95862C13.1985 6.73657 13.5583 6.73645 13.7804 6.95834V6.95834L15.3875 8.56599V8.56599C15.6093 8.7879 15.6093 9.14762 15.3875 9.36953L13.7804 10.9766V10.9766C13.5546 11.1946 13.1949 11.1884 12.9768 10.9626C12.7642 10.7424 12.7642 10.3933 12.9768 10.1731L13.6139 9.53604H9.92862V13.2213L10.5657 12.5843V12.5843C10.7914 12.3662 11.1512 12.3725 11.3692 12.5982C11.5819 12.8185 11.5819 13.1676 11.3692 13.3878L9.76211 14.9955V14.9955C9.5402 15.2173 9.18048 15.2173 8.95857 14.9955L7.35092 13.3878V13.3878C7.13288 13.1621 7.13914 12.8023 7.36489 12.5843C7.5851 12.3716 7.93424 12.3716 8.15446 12.5843L8.79206 13.2213V9.53604H5.10623L5.74383 10.1731V10.1731C5.96187 10.3988 5.95562 10.7586 5.72987 10.9766C5.50965 11.1893 5.16051 11.1893 4.94029 10.9766L3.33264 9.36953H3.33264C3.1108 9.14762 3.1108 8.7879 3.33264 8.56599L4.94029 6.95777V6.95777C5.1625 6.73588 5.52251 6.73613 5.7444 6.95834C5.9663 7.18054 5.96604 7.54055 5.74384 7.76245L5.10623 8.39892H8.79207V4.71479L8.15446 5.35126V5.35126C7.92871 5.56929 7.56895 5.56304 7.35092 5.33729C7.13822 5.11707 7.13822 4.76793 7.35092 4.54772L8.95857 2.94006V2.94007C9.18048 2.71822 9.5402 2.71822 9.76211 2.94006L11.3692 4.54772V4.54772C11.5949 4.76575 11.6012 5.12551 11.3832 5.35126C11.1651 5.57701 10.8054 5.58326 10.5796 5.36522C10.5749 5.36065 10.5702 5.35599 10.5657 5.35126L9.92862 4.71422V8.39949H13.6139V8.39948Z" fill="#333333"/>
</svg>
