<svg width="20" height="20" viewBox="0 0 20 20" fill="none" xmlns="http://www.w3.org/2000/svg">
<path d="M11.4777 14.9998L12.4577 15.9798C12.7774 16.3108 12.7682 16.8384 12.4372 17.1581C12.1143 17.47 11.6023 17.47 11.2794 17.1581L8.92185 14.8015C8.59653 14.476 8.59653 13.9485 8.92185 13.6231L11.2794 11.2656C11.605 10.9402 12.1327 10.9404 12.4581 11.266C12.7835 11.5917 12.7833 12.1194 12.4577 12.4448L11.5685 13.3331H13.3327H13.3327C15.1736 13.3331 16.666 11.8407 16.666 9.9998C16.666 8.15885 15.1736 6.66647 13.3327 6.66647C12.8724 6.66647 12.4994 6.29337 12.4994 5.83313C12.4994 5.37289 12.8724 4.9998 13.3327 4.9998C16.0941 4.9998 18.3327 7.23837 18.3327 9.9998C18.3327 12.7612 16.0941 14.9998 13.3327 14.9998H11.4777H11.4777ZM8.56018 4.9998L7.64602 4.08647C7.3204 3.76085 7.3204 3.23292 7.64602 2.9073C7.97163 2.58168 8.49957 2.58168 8.82518 2.9073L11.1818 5.2648C11.5072 5.59022 11.5072 6.11772 11.1818 6.44313L8.82518 8.7998C8.49979 9.12542 7.97205 9.1256 7.64643 8.80022C7.32081 8.47483 7.32063 7.94708 7.64602 7.62147L8.60185 6.66647H6.66602C4.82507 6.66647 3.33268 8.15885 3.33268 9.9998C3.33268 11.8407 4.82507 13.3331 6.66602 13.3331C7.12625 13.3331 7.49935 13.7062 7.49935 14.1665C7.49935 14.6267 7.12625 14.9998 6.66602 14.9998C3.90459 14.9998 1.66602 12.7612 1.66602 9.9998C1.66602 7.23837 3.90459 4.9998 6.66602 4.9998C6.66602 4.9998 6.66602 4.9998 6.66602 4.9998H8.56018H8.56018Z" fill="#FF0000"/>
</svg>
