<svg width="20" height="20" viewBox="0 0 20 20" fill="none" xmlns="http://www.w3.org/2000/svg">
<path d="M11.2869 13.4975H11.2869C8.92066 13.4975 7.00248 11.5793 7.00248 9.21313C7.00248 6.84693 8.92066 4.92875 11.2869 4.92875C13.6531 4.92875 15.5712 6.84693 15.5712 9.21313C15.5712 11.5793 13.6531 13.4975 11.2869 13.4975H11.2869ZM6.77398 12.7163L4.21763 15.2727C3.93416 15.5468 3.92663 15.9989 4.20081 16.2824C4.47498 16.5658 4.92704 16.5734 5.21051 16.2992C5.21645 16.2934 5.22229 16.2876 5.22803 16.2816L7.78438 13.7253H7.78438C10.2766 15.6599 13.8652 15.2078 15.7997 12.7156C17.7343 10.2234 17.2823 6.63481 14.7901 4.70025C12.2979 2.76569 8.70926 3.21774 6.77469 5.70994C5.17471 7.77111 5.17471 10.6544 6.77469 12.7156L6.77398 12.7163Z" fill="#C4C4C4"/>
</svg>
