<svg width="18" height="18" viewBox="0 0 18 18" fill="none" xmlns="http://www.w3.org/2000/svg">
<path fill-rule="evenodd" clip-rule="evenodd" d="M15.0063 2.99344C15.2658 3.25291 15.2658 3.67358 15.0063 3.93304L8.91601 10.0234C8.65654 10.2828 8.23587 10.2828 7.97641 10.0234C7.71695 9.76389 7.71695 9.34322 7.97641 9.08375L14.0667 2.99344C14.3262 2.73398 14.7469 2.73398 15.0063 2.99344Z" fill="#333333"/>
<path fill-rule="evenodd" clip-rule="evenodd" d="M15.0063 2.99344C15.1868 3.17392 15.2479 3.44183 15.1636 3.68273L11.288 14.756C11.198 15.0131 10.9601 15.1893 10.6879 15.2004C10.4158 15.2115 10.1644 15.0553 10.0537 14.8064L7.94286 10.0569L3.19339 7.94603C2.94445 7.83539 2.78828 7.584 2.79938 7.31181C2.81049 7.03962 2.98662 6.80179 3.24374 6.7118L14.317 2.83615C14.5579 2.75183 14.8258 2.81297 15.0063 2.99344ZM5.26446 7.41238L8.71605 8.94642C8.86635 9.01322 8.98654 9.13341 9.05334 9.28371L10.5874 12.7353L13.4536 4.54619L5.26446 7.41238Z" fill="#333333"/>
</svg>
