<svg width="24" height="24" viewBox="0 0 24 24" fill="none" xmlns="http://www.w3.org/2000/svg">
<path fill-rule="evenodd" clip-rule="evenodd" d="M17.0586 9.30225C17.6173 9.30225 18.0703 9.7552 18.0703 10.314V18.7449C18.0703 19.3036 17.6173 19.7566 17.0586 19.7566C16.4998 19.7566 16.0469 19.3036 16.0469 18.7449V10.314C16.0469 9.7552 16.4998 9.30225 17.0586 9.30225Z" fill="#333333"/>
<path fill-rule="evenodd" clip-rule="evenodd" d="M12 4.24365C12.5587 4.24365 13.0117 4.69661 13.0117 5.25536V18.7448C13.0117 19.3036 12.5587 19.7566 12 19.7566C11.4412 19.7566 10.9883 19.3036 10.9883 18.7448V5.25536C10.9883 4.69661 11.4412 4.24365 12 4.24365Z" fill="#333333"/>
<path fill-rule="evenodd" clip-rule="evenodd" d="M6.9414 12.6748C7.50015 12.6748 7.95311 13.1278 7.95311 13.6865V18.7451C7.95311 19.3038 7.50015 19.7568 6.9414 19.7568C6.38265 19.7568 5.92969 19.3038 5.92969 18.7451V13.6865C5.92969 13.1278 6.38265 12.6748 6.9414 12.6748Z" fill="#333333"/>
</svg>
