<svg width="24" height="24" viewBox="0 0 24 24" fill="none" xmlns="http://www.w3.org/2000/svg">
<path d="M3.64893 12.0002C3.64893 11.2779 3.74078 10.5781 3.91281 9.90915C5.29452 9.98178 6.47349 8.92057 6.54612 7.53886C6.57389 7.01067 6.43377 6.48723 6.14583 6.04355L6.14583 6.04355C7.1554 5.05027 8.40122 4.33037 9.76592 3.95166C10.3932 5.18492 11.9014 5.67618 13.1347 5.04892C13.6074 4.80851 13.9915 4.42432 14.2319 3.95166H14.2319C15.5966 4.33037 16.8425 5.05027 17.852 6.04355C17.0983 7.20384 17.4279 8.75546 18.5882 9.50918C19.0325 9.79777 19.5568 9.9381 20.0859 9.90999C20.2579 10.5781 20.3498 11.2779 20.3498 12.0002C20.3498 12.7225 20.2579 13.4223 20.0859 14.0912C18.7042 14.0181 17.5249 15.0789 17.4518 16.4606C17.4238 16.9891 17.5639 17.5129 17.852 17.9569C16.8425 18.9501 15.5966 19.67 14.2319 20.0487C13.6047 18.8155 12.0964 18.3242 10.8632 18.9515C10.3905 19.1919 10.0063 19.5761 9.76592 20.0487C8.40122 19.67 7.1554 18.9501 6.14583 17.9569C6.89954 16.7966 6.56994 15.2449 5.40963 14.4912C4.96535 14.2026 4.44102 14.0623 3.91198 14.0904C3.74079 13.4232 3.64893 12.7234 3.64893 12.0002L3.64893 12.0002ZM7.66067 14.5054C8.18677 15.4165 8.33709 16.4646 8.13165 17.4483C8.47237 17.6905 8.83479 17.9001 9.21476 18.0746C9.98025 17.3889 10.972 17.01 11.9998 17.0107C13.052 17.0107 14.0357 17.404 14.7848 18.0746C15.1647 17.9001 15.5272 17.6905 15.8679 17.4483C15.657 16.4428 15.8247 15.3949 16.3389 14.5054C16.8521 13.6156 17.6758 12.9465 18.652 12.6265V12.6265C18.6907 12.2099 18.6907 11.7905 18.652 11.3739V11.3739C17.6755 11.0541 16.8515 10.385 16.338 9.49495L16.338 9.49494C15.8238 8.60552 15.6561 7.55758 15.867 6.55211C15.5264 6.30987 15.1638 6.10018 14.7839 5.9258C14.0187 6.61134 13.0272 6.9902 11.9998 6.98969C10.972 6.99041 9.98025 6.61154 9.21476 5.9258H9.21476C8.83491 6.10018 8.47228 6.30987 8.13166 6.55211V6.55211C8.34257 7.55758 8.17485 8.60552 7.66067 9.49494C7.1474 10.3848 6.32368 11.0539 5.34748 11.3739C5.30886 11.7905 5.30886 12.2099 5.34748 12.6265H5.34748C6.32399 12.9463 7.14803 13.6154 7.6615 14.5054L7.66067 14.5054ZM11.9998 14.5054C10.6162 14.5054 9.49451 13.3838 9.49451 12.0002C9.49451 10.6166 10.6162 9.49495 11.9998 9.49495C13.3834 9.49495 14.505 10.6166 14.505 12.0002C14.505 13.3838 13.3834 14.5054 11.9998 14.5054ZM11.9998 12.8353C12.461 12.8353 12.8348 12.4614 12.8348 12.0002C12.8348 11.539 12.461 11.1651 11.9998 11.1651C11.5386 11.1651 11.1647 11.539 11.1647 12.0002C11.1647 12.4614 11.5386 12.8353 11.9998 12.8353Z" fill="#333333"/>
</svg>
