<svg width="24" height="24" viewBox="0 0 24 24" fill="none" xmlns="http://www.w3.org/2000/svg">
<path d="M12.7503 12.8426C12.2902 15.5671 9.75057 17.3956 7.07775 16.9267C4.72717 16.5143 3.00719 14.4398 3 12.0086C2.99753 9.24494 5.19339 7.00253 7.90461 7C10.3035 6.99777 12.3526 8.76312 12.7503 11.1746H20.166C20.6266 11.1746 21 11.548 21 12.0086C21 12.4692 20.6266 12.8426 20.166 12.8426H19.3636V15.3604C19.3636 15.8123 18.9973 16.1786 18.5455 16.1786C18.0936 16.1786 17.7273 15.8123 17.7273 15.3604V12.8426H16.0909V15.3604C16.0909 15.8123 15.7246 16.1786 15.2727 16.1786C14.8209 16.1786 14.4545 15.8123 14.4545 15.3604V12.8426L12.7503 12.8426ZM7.90909 15.3446C9.71657 15.3446 11.1818 13.851 11.1818 12.0086C11.1818 10.1662 9.71657 8.67257 7.90909 8.67257C6.10161 8.67257 4.63637 10.1662 4.63637 12.0086C4.63637 13.851 6.10161 15.3446 7.90909 15.3446Z" fill="#333333"/>
</svg>
