<svg width="24" height="24" viewBox="0 0 24 24" fill="none" xmlns="http://www.w3.org/2000/svg">
<path d="M17.044 10.9803V14.3545C17.044 14.5739 17.0355 14.7848 17.0102 14.9872C16.8162 17.2648 15.475 18.3952 13.0034 18.3952H12.6659C12.455 18.3952 12.2526 18.4964 12.1261 18.6651L11.1138 20.0148C10.6667 20.6137 9.94124 20.6137 9.49416 20.0148L8.48188 18.6651C8.37222 18.5217 8.1276 18.3952 7.94202 18.3952H7.6046C4.91366 18.3952 3.56396 17.7288 3.56396 14.3545V10.9803C3.56396 8.50872 4.70277 7.16747 6.97194 6.97345C7.17439 6.94814 7.38528 6.9397 7.6046 6.9397H13.0034C15.6943 6.9397 17.044 8.28939 17.044 10.9803Z" stroke="#333333" stroke-width="1.5" stroke-linecap="round" stroke-linejoin="round"/>
<path d="M20.4179 7.60607V10.9803C20.4179 13.4603 19.2791 14.7932 17.01 14.9872C17.0353 14.7847 17.0437 14.5738 17.0437 14.3545V10.9803C17.0437 8.28935 15.694 6.93965 13.0031 6.93965H7.60435C7.38502 6.93965 7.17413 6.9481 6.97168 6.9734C7.1657 4.70424 8.50695 3.56543 10.9785 3.56543H16.3773C19.0682 3.56543 20.4179 4.91513 20.4179 7.60607V7.60607Z" stroke="#333333" stroke-width="1.5" stroke-linecap="round" stroke-linejoin="round"/>
<path d="M13.2612 13.0554H13.2684" stroke="#333333" stroke-width="2" stroke-linecap="round" stroke-linejoin="round"/>
<path d="M10.3086 13.0554H10.3158" stroke="#333333" stroke-width="2" stroke-linecap="round" stroke-linejoin="round"/>
<path d="M7.35596 13.0554H7.36316" stroke="#333333" stroke-width="2" stroke-linecap="round" stroke-linejoin="round"/>
</svg>
