<svg width="24" height="24" viewBox="0 0 24 24" fill="none" xmlns="http://www.w3.org/2000/svg">
<path d="M7.92275 10.9807H6.29184C4.31844 10.9807 3.23389 9.89611 3.23389 7.92271V6.29181C3.23389 4.31841 4.31844 3.23386 6.29184 3.23386H7.92275C9.89614 3.23386 10.9807 4.31841 10.9807 6.29181V7.92271C10.9807 9.89611 9.89614 10.9807 7.92275 10.9807ZM6.29184 4.45704C5.00342 4.45704 4.45707 5.00339 4.45707 6.29181V7.92271C4.45707 9.21113 5.00342 9.75748 6.29184 9.75748H7.92275C9.21116 9.75748 9.75752 9.21113 9.75752 7.92271V6.29181C9.75752 5.00339 9.21116 4.45704 7.92275 4.45704H6.29184Z" fill="#333333" stroke="#333333" stroke-width="0.5"/>
<path d="M17.7084 10.9807H16.0775C14.1041 10.9807 13.0195 9.89611 13.0195 7.92272V6.29181C13.0195 4.31841 14.1041 3.23386 16.0775 3.23386H17.7084C19.6818 3.23386 20.7663 4.31841 20.7663 6.29181V7.92272C20.7663 9.89611 19.6818 10.9807 17.7084 10.9807ZM16.0775 4.45704C14.7891 4.45704 14.2427 5.00339 14.2427 6.29181V7.92272C14.2427 9.21113 14.7891 9.75749 16.0775 9.75749H17.7084C18.9968 9.75749 19.5432 9.21113 19.5432 7.92272V6.29181C19.5432 5.00339 18.9968 4.45704 17.7084 4.45704H16.0775Z" fill="#333333" stroke="#333333" stroke-width="0.5"/>
<path d="M17.7084 20.7661H16.0775C14.1041 20.7661 13.0195 19.6815 13.0195 17.7081V16.0772C13.0195 14.1038 14.1041 13.0193 16.0775 13.0193H17.7084C19.6818 13.0193 20.7663 14.1038 20.7663 16.0772V17.7081C20.7663 19.6815 19.6818 20.7661 17.7084 20.7661ZM16.0775 14.2425C14.7891 14.2425 14.2427 14.7888 14.2427 16.0772V17.7081C14.2427 18.9966 14.7891 19.5429 16.0775 19.5429H17.7084C18.9968 19.5429 19.5432 18.9966 19.5432 17.7081V16.0772C19.5432 14.7888 18.9968 14.2425 17.7084 14.2425H16.0775Z" fill="#333333" stroke="#333333" stroke-width="0.5"/>
<path d="M7.92274 20.7661H6.29184C4.31844 20.7661 3.23389 19.6815 3.23389 17.7081V16.0772C3.23389 14.1038 4.31844 13.0193 6.29184 13.0193H7.92274C9.89614 13.0193 10.9807 14.1038 10.9807 16.0772V17.7081C10.9807 19.6815 9.89614 20.7661 7.92274 20.7661ZM6.29184 14.2425C5.00342 14.2425 4.45707 14.7888 4.45707 16.0772V17.7081C4.45707 18.9966 5.00342 19.5429 6.29184 19.5429H7.92274C9.21116 19.5429 9.75752 18.9966 9.75752 17.7081V16.0772C9.75752 14.7888 9.21116 14.2425 7.92274 14.2425H6.29184Z" fill="#333333" stroke="#333333" stroke-width="0.5"/>
</svg>
