<svg width="24" height="24" viewBox="0 0 24 24" fill="none" xmlns="http://www.w3.org/2000/svg">
<path fill-rule="evenodd" clip-rule="evenodd" d="M3.11133 17.1847C3.11133 15.1289 4.77784 13.4624 6.83359 13.4624H12.7586C14.8144 13.4624 16.4809 15.1289 16.4809 17.1847V18.6659C16.4809 19.0855 16.1408 19.4257 15.7212 19.4257C15.3016 19.4257 14.9614 19.0855 14.9614 18.6659V17.1847C14.9614 15.9681 13.9752 14.9819 12.7586 14.9819H6.83359C5.61702 14.9819 4.6308 15.9681 4.6308 17.1847V18.6659C4.6308 19.0855 4.29065 19.4257 3.87106 19.4257C3.45147 19.4257 3.11133 19.0855 3.11133 18.6659V17.1847Z" fill="#333333"/>
<path fill-rule="evenodd" clip-rule="evenodd" d="M11.3541 6.73936C10.4938 5.87912 9.09912 5.87912 8.23887 6.73936L8.23887 6.73936C7.37863 7.5996 7.37863 8.99433 8.23887 9.85458L7.70423 10.3892L8.23887 9.85458C9.09911 10.7148 10.4938 10.7148 11.3541 9.85458L11.8913 10.3918L11.3541 9.85457C12.2143 8.99434 12.2143 7.59961 11.3541 6.73936ZM12.4285 5.66494C13.8821 7.11857 13.8822 9.47538 12.4285 10.929C10.9749 12.3826 8.61807 12.3826 7.16445 10.929C5.71081 9.47537 5.71081 7.11856 7.16445 5.66493C8.61808 4.2113 10.9749 4.2113 12.4285 5.66494Z" fill="#333333"/>
<path fill-rule="evenodd" clip-rule="evenodd" d="M17.2419 14.1375C17.3419 13.7503 17.7369 13.5174 18.1242 13.6174C19.7509 14.0375 20.8879 15.5041 20.889 17.1843V18.6661C20.889 19.066 20.5648 19.3902 20.1648 19.3902C19.7649 19.3902 19.4407 19.066 19.4407 18.6661V17.1853C19.4407 17.1852 19.4407 17.1853 19.4407 17.1853C19.4399 16.1653 18.7497 15.2748 17.762 15.0198C17.3748 14.9197 17.1419 14.5247 17.2419 14.1375Z" fill="#333333"/>
<path fill-rule="evenodd" clip-rule="evenodd" d="M16.3798 8.84714C16.6815 7.66859 15.9707 6.46857 14.7922 6.16681L15.1691 4.69482C17.1606 5.20473 18.3616 7.23252 17.8517 9.22403C17.5145 10.5411 16.4861 11.5695 15.1691 11.9067C14.7626 12.0108 14.3487 11.7656 14.2446 11.3592C14.1406 10.9527 14.3857 10.5388 14.7922 10.4347C15.5716 10.2352 16.1802 9.62655 16.3798 8.84715L16.3798 8.84714Z" fill="#333333"/>
</svg>
