<svg width="24" height="24" viewBox="0 0 24 24" fill="none" xmlns="http://www.w3.org/2000/svg">
<path d="M8.08531 4.16992H15.9152V4.16992C17.2125 4.16992 18.2642 5.2216 18.2642 6.5189V17.4808C18.2642 18.7781 17.2125 19.8298 15.9152 19.8298H8.08531C6.788 19.8298 5.73633 18.7781 5.73633 17.4808V6.5189L5.73633 6.5189C5.73633 5.2216 6.788 4.16992 8.08531 4.16992L8.08531 4.16992ZM8.08531 5.73591C7.65287 5.73591 7.30231 6.08646 7.30231 6.5189V17.4808C7.30231 17.9132 7.65287 18.2638 8.08531 18.2638H15.9152C16.3477 18.2638 16.6982 17.9132 16.6982 17.4808V6.5189C16.6982 6.08646 16.3477 5.73591 15.9152 5.73591H8.08531V5.73591ZM9.65129 6.5189H14.3492C14.7817 6.5189 15.1322 6.86946 15.1322 7.30189C15.1322 7.73433 14.7817 8.08488 14.3492 8.08488H9.65129C9.21886 8.08488 8.8683 7.73433 8.8683 7.30189C8.8683 6.86946 9.21886 6.5189 9.65129 6.5189ZM9.65129 15.9148H11.2173C11.6497 15.9148 12.0003 16.2654 12.0003 16.6978C12.0003 17.1302 11.6497 17.4808 11.2173 17.4808H9.65129C9.21886 17.4808 8.8683 17.1302 8.8683 16.6978C8.8683 16.2654 9.21886 15.9148 9.65129 15.9148ZM9.65129 12.7828H14.3492C14.7817 12.7828 15.1322 13.1334 15.1322 13.5658C15.1322 13.9983 14.7817 14.3488 14.3492 14.3488H9.65129C9.21886 14.3488 8.8683 13.9983 8.8683 13.5658C8.8683 13.1334 9.21886 12.7828 9.65129 12.7828ZM9.65129 9.65087H14.3492C14.7817 9.65087 15.1322 10.0014 15.1322 10.4339C15.1322 10.8663 14.7817 11.2169 14.3492 11.2169H9.65129C9.21886 11.2169 8.8683 10.8663 8.8683 10.4339C8.8683 10.0014 9.21886 9.65087 9.65129 9.65087Z" fill="#F6891F"/>
</svg>
