<svg width="20" height="20" viewBox="0 0 20 20" fill="none" xmlns="http://www.w3.org/2000/svg">
<path fill-rule="evenodd" clip-rule="evenodd" d="M6.46319 3.64824C5.90509 3.64824 5.45266 4.12221 5.45266 4.70689L5.45266 15.2933C5.45266 15.878 5.90509 16.352 6.46319 16.352H13.5369C14.0949 16.352 14.5474 15.878 14.5474 15.2933V8.94146L11.0105 8.94146C10.1734 8.94146 9.49476 8.2305 9.49476 7.3535V3.64824L6.46319 3.64824ZM10.5053 4.39682L13.8328 7.88282L11.0105 7.88282C10.7315 7.88282 10.5053 7.64583 10.5053 7.3535V4.39682ZM4.44214 4.70689C4.44214 3.53754 5.34699 2.5896 6.46319 2.5896L9.58168 2.5896C9.98355 2.58966 10.3689 2.75691 10.6531 3.05457L15.1141 7.72791C15.3982 8.02564 15.5578 8.4294 15.5579 8.85041V15.2933C15.5579 16.4627 14.653 17.4106 13.5369 17.4106H6.46319C5.34699 17.4106 4.44214 16.4627 4.44214 15.2933L4.44214 4.70689ZM6.96845 11.0588C6.96845 10.7664 7.19466 10.5294 7.47371 10.5294L12.5263 10.5294C12.8054 10.5294 13.0316 10.7664 13.0316 11.0588C13.0316 11.3511 12.8054 11.5881 12.5263 11.5881L7.47371 11.5881C7.19466 11.5881 6.96845 11.3511 6.96845 11.0588ZM6.96845 13.7054C6.96845 13.413 7.19466 13.176 7.47371 13.176L12.5263 13.176C12.8054 13.176 13.0316 13.413 13.0316 13.7054C13.0316 13.9977 12.8054 14.2347 12.5263 14.2347L7.47371 14.2347C7.19466 14.2347 6.96845 13.9977 6.96845 13.7054Z" fill="#333333"/>
<path fill-rule="evenodd" clip-rule="evenodd" d="M4.19214 4.70689C4.19214 3.41056 5.19809 2.3396 6.46319 2.3396L9.58168 2.3396C10.0537 2.33967 10.5039 2.53622 10.834 2.88193L15.2949 7.55529C15.6245 7.90069 15.8078 8.36673 15.8079 8.85037V15.2933C15.8079 16.5897 14.802 17.6606 13.5369 17.6606H6.46319C5.19809 17.6606 4.19214 16.5897 4.19214 15.2933L4.19214 4.70689ZM6.46319 2.8396C5.4959 2.8396 4.69214 3.66452 4.69214 4.70689L4.69214 15.2933C4.69214 16.3357 5.4959 17.1606 6.46319 17.1606H13.5369C14.5041 17.1606 15.3079 16.3357 15.3079 15.2933V8.85044C15.3079 8.85043 15.3079 8.85045 15.3079 8.85044C15.3078 8.49207 15.1718 8.15056 14.9332 7.90051L10.4723 3.22724M6.46319 2.8396L9.58164 2.8396L6.46319 2.8396ZM9.58164 2.8396C9.58162 2.8396 9.58165 2.8396 9.58164 2.8396V2.8396ZM6.46319 3.89824C6.05399 3.89824 5.70266 4.2492 5.70266 4.70689L5.70266 15.2933C5.70266 15.751 6.05399 16.102 6.46319 16.102H13.5369C13.946 16.102 14.2974 15.751 14.2974 15.2933V9.19146L11.0105 9.19146C10.0245 9.19146 9.24476 8.35749 9.24476 7.3535V3.89824L6.46319 3.89824ZM5.20266 4.70689C5.20266 3.99523 5.75618 3.39824 6.46319 3.39824L9.49476 3.39824C9.63283 3.39824 9.74476 3.51017 9.74476 3.64824V7.3535C9.74476 8.10352 10.3223 8.69146 11.0105 8.69146L14.5474 8.69146C14.6854 8.69146 14.7974 8.80339 14.7974 8.94146V15.2933C14.7974 16.005 14.2439 16.602 13.5369 16.602H6.46319C5.75618 16.602 5.20266 16.005 5.20266 15.2933L5.20266 4.70689ZM10.4123 4.16475C10.5071 4.12675 10.6156 4.15029 10.6861 4.2242L14.0137 7.7102C14.0828 7.78258 14.102 7.88918 14.0627 7.98117C14.0233 8.07316 13.9329 8.13282 13.8328 8.13282L11.0105 8.13282C10.5826 8.13282 10.2553 7.77282 10.2553 7.3535V4.39682C10.2553 4.29464 10.3175 4.20275 10.4123 4.16475ZM10.7553 5.02079V7.3535C10.7553 7.51885 10.8804 7.63282 11.0105 7.63282L13.2486 7.63282L10.7553 5.02079ZM6.71845 11.0588C6.71845 10.6394 7.04576 10.2794 7.47371 10.2794L12.5263 10.2794C12.9543 10.2794 13.2816 10.6394 13.2816 11.0588C13.2816 11.4781 12.9543 11.8381 12.5263 11.8381L7.47371 11.8381C7.04576 11.8381 6.71845 11.4781 6.71845 11.0588ZM7.47371 10.7794C7.34356 10.7794 7.21845 10.8934 7.21845 11.0588C7.21845 11.2241 7.34356 11.3381 7.47371 11.3381L12.5263 11.3381C12.6565 11.3381 12.7816 11.2241 12.7816 11.0588C12.7816 10.8934 12.6565 10.7794 12.5263 10.7794L7.47371 10.7794ZM6.71845 13.7054C6.71845 13.286 7.04576 12.926 7.47371 12.926L12.5263 12.926C12.9543 12.926 13.2816 13.286 13.2816 13.7054C13.2816 14.1247 12.9543 14.4847 12.5263 14.4847L7.47371 14.4847C7.04576 14.4847 6.71845 14.1247 6.71845 13.7054ZM7.47371 13.426C7.34356 13.426 7.21845 13.54 7.21845 13.7054C7.21845 13.8707 7.34356 13.9847 7.47371 13.9847L12.5263 13.9847C12.6565 13.9847 12.7816 13.8707 12.7816 13.7054C12.7816 13.54 12.6565 13.426 12.5263 13.426L7.47371 13.426Z" fill="#333333"/>
</svg>
