<svg width="24" height="24" viewBox="0 0 24 24" fill="none" xmlns="http://www.w3.org/2000/svg">
<path d="M9.65237 4.1748H14.3474C18.26 4.1748 19.825 5.73982 19.825 9.65237V14.3474C19.825 18.26 18.26 19.825 14.3474 19.825H9.65237C5.73982 19.825 4.1748 18.26 4.1748 14.3474V9.65237C4.1748 5.73982 5.73982 4.1748 9.65237 4.1748Z" stroke="#333333" stroke-width="1.5" stroke-linecap="round" stroke-linejoin="round"/>
<path d="M9.44092 14.5588L14.5585 9.44116" stroke="#333333" stroke-width="1.5" stroke-linecap="round" stroke-linejoin="round"/>
<path d="M9.45712 10.5321C9.98869 10.5321 10.4196 10.1012 10.4196 9.56967C10.4196 9.03811 9.98869 8.60718 9.45712 8.60718C8.92556 8.60718 8.49463 9.03811 8.49463 9.56967C8.49463 10.1012 8.92556 10.5321 9.45712 10.5321Z" stroke="#333333" stroke-width="1.3" stroke-linecap="round" stroke-linejoin="round"/>
<path d="M14.5431 15.2006C15.0746 15.2006 15.5055 14.7697 15.5055 14.2381C15.5055 13.7066 15.0746 13.2756 14.5431 13.2756C14.0115 13.2756 13.5806 13.7066 13.5806 14.2381C13.5806 14.7697 14.0115 15.2006 14.5431 15.2006Z" stroke="#333333" stroke-width="1.3" stroke-linecap="round" stroke-linejoin="round"/>
</svg>
