<svg width="24" height="24" viewBox="0 0 24 24" fill="none" xmlns="http://www.w3.org/2000/svg">
<path fill-rule="evenodd" clip-rule="evenodd" d="M9.24023 20L9.24024 16.76H5.00023C4.02821 16.76 3.24023 15.972 3.24023 15V3.99999C3.24023 3.02797 4.02821 2.23999 5.00023 2.23999H13.0002C13.9723 2.23999 14.7602 3.02797 14.7602 3.99999V7.23999H17.9008L20.7602 10.0994V20C20.7602 20.972 19.9723 21.76 19.0002 21.76H11.0002C10.0282 21.76 9.24023 20.972 9.24023 20ZM4.76023 15.24H9.24024V8.99999C9.24024 8.02797 10.0282 7.23999 11.0002 7.23999H13.2402V3.75999H4.76023V15.24ZM19.2402 10.7286L17.2716 8.75999H10.7602V20.24H19.2402V10.7286Z" fill="#333333"/>
</svg>
