<svg width="24" height="24" viewBox="0 0 24 24" fill="none" xmlns="http://www.w3.org/2000/svg">
<path d="M11.9991 3.04004C16.9477 3.04004 20.959 7.05143 20.959 12C20.959 16.9486 16.9477 20.96 11.9991 20.96C7.05045 20.96 3.03906 16.9486 3.03906 12C3.03906 7.05143 7.05045 3.04004 11.9991 3.04004ZM11.9991 4.83204C8.04053 4.83204 4.83106 8.04151 4.83106 12C4.83106 15.9586 8.04053 19.168 11.9991 19.168C15.9576 19.168 19.167 15.9586 19.167 12C19.167 8.04151 15.9576 4.83204 11.9991 4.83204ZM15.4334 7.82199C15.6458 7.67325 15.9343 7.69834 16.1171 7.88202C16.2999 8.0648 16.3231 8.35331 16.1735 8.56298C14.2202 11.2922 13.145 12.7545 12.9497 12.9507C12.4247 13.4748 11.5735 13.4748 11.0484 12.9507C10.5242 12.4256 10.5242 11.5744 11.0484 11.0494C11.3835 10.7152 12.8449 9.63907 15.4334 7.82199ZM16.927 11.104C17.4216 11.104 17.823 11.5054 17.823 12C17.823 12.4946 17.4216 12.896 16.927 12.896C16.4325 12.896 16.031 12.4946 16.031 12C16.031 11.5054 16.4325 11.104 16.927 11.104ZM7.07106 11.104C7.56565 11.104 7.96706 11.5054 7.96706 12C7.96706 12.4946 7.56565 12.896 7.07106 12.896C6.57647 12.896 6.17506 12.4946 6.17506 12C6.17506 11.5054 6.57647 11.104 7.07106 11.104ZM9.14798 7.88202C9.49742 8.23146 9.49742 8.79862 9.14798 9.14896C8.79854 9.4984 8.23048 9.4984 7.88104 9.14896C7.5316 8.79952 7.5316 8.23146 7.88104 7.88202C8.23048 7.53258 8.79765 7.53258 9.14798 7.88202ZM11.9991 6.17604C12.4936 6.17604 12.8951 6.57744 12.8951 7.07203C12.8951 7.56663 12.4936 7.96803 11.9991 7.96803C11.5045 7.96803 11.1031 7.56663 11.1031 7.07203C11.1031 6.57744 11.5045 6.17604 11.9991 6.17604Z" fill="#F6891F"/>
</svg>
