<svg width="24" height="24" viewBox="0 0 24 24" fill="none" xmlns="http://www.w3.org/2000/svg">
<path d="M6.36594 7.59938L11.4241 12.1057C11.7577 12.4027 12.261 12.4027 12.5946 12.1057L17.6536 7.59938H6.36594ZM19.0416 8.71979L13.7661 13.4206C12.7649 14.3129 11.2538 14.3129 10.2526 13.4206L4.95948 8.70306V16.4007H19.0416V8.71979ZM4.95948 5.83911H19.0416C20.0138 5.83911 20.8019 6.62721 20.8019 7.59938V16.4007C20.8019 17.3729 20.0138 18.161 19.0416 18.161H4.95948C3.98732 18.161 3.19922 17.3729 3.19922 16.4007V7.59938C3.19922 6.62721 3.98732 5.83911 4.95948 5.83911Z" fill="#333333"/>
</svg>
