<svg width="25" height="24" viewBox="0 0 25 24" fill="none" xmlns="http://www.w3.org/2000/svg">
<path fill-rule="evenodd" clip-rule="evenodd" d="M10.2776 12.8C10.2776 12.4563 10.5561 12.1777 10.8998 12.1777H14.0998C14.4434 12.1777 14.722 12.4563 14.722 12.8C14.722 13.1436 14.4434 13.4222 14.0998 13.4222H10.8998C10.5561 13.4222 10.2776 13.1436 10.2776 12.8Z" fill="#333333"/>
<path fill-rule="evenodd" clip-rule="evenodd" d="M20.6957 19.1923C21.0716 18.7686 21.2999 18.211 21.2999 17.6V6.4C21.2999 5.07451 20.2255 4 18.8999 4H6.09995C4.77446 4 3.69995 5.07451 3.69995 6.4V17.6C3.69995 18.6124 4.32682 19.4784 5.21359 19.831C5.4878 19.9401 5.78686 20 6.09993 20C6.09992 20 6.09993 20 6.09993 20L18.8999 20C19.6145 20 20.2561 19.6878 20.6957 19.1923ZM5.93869 18.3837C5.99077 18.3944 6.0447 18.4 6.09993 18.4H18.8999C18.9551 18.4 19.0091 18.3944 19.0611 18.3837C19.2303 18.3491 19.3801 18.2611 19.492 18.138C19.6212 17.9959 19.6999 17.8071 19.6999 17.6V10.4H5.29995L5.29993 17.6C5.29993 17.9866 5.57414 18.3091 5.93869 18.3837ZM6.09995 5.6H18.8999C19.3417 5.6 19.6999 5.95815 19.6999 6.4V8.8H5.29995V6.4C5.29995 5.95815 5.6581 5.6 6.09995 5.6Z" fill="#333333"/>
</svg>
