<svg width="18" height="18" viewBox="0 0 18 18" fill="none" xmlns="http://www.w3.org/2000/svg">
<path d="M11.9228 15.7062C11.7018 15.7062 11.4872 15.6412 11.2987 15.5177L8.52912 13.6713H7.30035C7.15082 13.6713 7.00777 13.5998 6.91675 13.4827C6.82573 13.3592 6.79325 13.2031 6.83225 13.0602C6.87126 12.9041 6.89077 12.7481 6.89077 12.5791C6.89077 12.059 6.69573 11.5584 6.34466 11.1683C5.94807 10.7197 5.38246 10.4661 4.77784 10.4661C4.19922 10.4661 3.6596 10.6936 3.26302 11.1032C3.13949 11.2332 2.95096 11.2853 2.78193 11.2333C2.61289 11.1813 2.47636 11.0448 2.43736 10.8692C2.37234 10.5832 2.33984 10.2711 2.33984 9.93303V6.0322C2.33984 3.79575 3.84165 2.29395 6.0781 2.29395H12.5794C14.8159 2.29395 16.3177 3.79575 16.3177 6.0322V9.93303C16.3177 11.0187 15.9601 11.9549 15.2775 12.6375C14.7053 13.2096 13.9447 13.5543 13.067 13.6453V14.5685C13.067 14.9911 12.8329 15.3746 12.4623 15.5761C12.2868 15.6606 12.1048 15.7062 11.9228 15.7062H11.9228ZM7.85946 12.6895H8.67215C8.76967 12.6895 8.86068 12.7155 8.9452 12.774L11.8383 14.705C11.9033 14.7505 11.9683 14.7309 12.0008 14.7114C12.0333 14.6919 12.0918 14.6529 12.0918 14.5619V13.1771C12.0918 12.9106 12.3129 12.6895 12.5794 12.6895C13.4051 12.6895 14.1007 12.4295 14.5883 11.9419C15.0824 11.4478 15.3425 10.7521 15.3425 9.92646V6.0257C15.3425 4.34836 14.2568 3.26264 12.5794 3.26264H6.07812C4.40078 3.26264 3.31506 4.34836 3.31506 6.0257V9.84844C3.75715 9.6079 4.25775 9.48444 4.77786 9.48444C5.66204 9.48444 6.5007 9.86151 7.07282 10.5116C7.57992 11.0773 7.86598 11.8119 7.86598 12.5726C7.85948 12.6116 7.85948 12.6505 7.85948 12.6895H7.85946Z" fill="#333333" stroke="#292D32" stroke-width="0.3"/>
<path d="M4.77172 15.6611C4.00456 15.6611 3.27641 15.3751 2.7108 14.8615C2.48325 14.6664 2.28171 14.4259 2.12568 14.1593C1.83962 13.6912 1.68359 13.1386 1.68359 12.573C1.68359 11.7603 1.99565 10.9997 2.55477 10.4211C3.13989 9.81643 3.92655 9.48486 4.77172 9.48486C5.6559 9.48486 6.49457 9.86194 7.06669 10.5121C7.57379 11.0777 7.85985 11.8123 7.85985 12.573C7.85985 12.82 7.82735 13.0671 7.76233 13.3011C7.69732 13.5937 7.57378 13.8993 7.40475 14.1658C6.86514 15.089 5.85094 15.6611 4.77172 15.6611ZM4.77172 10.4601C4.1931 10.4601 3.6535 10.6876 3.25692 11.0972C2.87334 11.4938 2.65879 12.0139 2.65879 12.573C2.65879 12.9566 2.76281 13.3336 2.96435 13.6587C3.06837 13.8407 3.2049 14.0033 3.36093 14.1398C3.75101 14.4974 4.25161 14.6924 4.77172 14.6924C5.51937 14.6924 6.19551 14.3088 6.57909 13.6717C6.69611 13.4897 6.77412 13.2881 6.81963 13.0801C6.86514 12.9111 6.88465 12.7485 6.88465 12.5795C6.88465 12.0594 6.68961 11.5588 6.33854 11.1687C5.94846 10.7136 5.37634 10.4601 4.77172 10.4601Z" fill="#292D32" stroke="#292D32" stroke-width="0.3"/>
<path d="M5.74008 13.048H3.79619C3.52964 13.048 3.30859 12.8269 3.30859 12.5604C3.30859 12.2938 3.52964 12.0728 3.79619 12.0728H5.74008C6.00663 12.0728 6.22768 12.2938 6.22768 12.5604C6.22768 12.8269 6.01314 13.048 5.74008 13.048Z" fill="#292D32" stroke="#292D32" stroke-width="0.3"/>
<path d="M4.7708 14.0416C4.50425 14.0416 4.2832 13.8206 4.2832 13.5541V11.6102C4.2832 11.3436 4.50425 11.1226 4.7708 11.1226C5.03736 11.1226 5.2584 11.3436 5.2584 11.6102V13.5541C5.2584 13.8271 5.03736 14.0416 4.7708 14.0416Z" fill="#292D32" stroke="#292D32" stroke-width="0.3"/>
<path d="M11.5971 8.50938H7.04619C6.77964 8.50938 6.55859 8.28833 6.55859 8.02178C6.55859 7.75522 6.77964 7.53418 7.04619 7.53418H11.5971C11.8637 7.53418 12.0847 7.75522 12.0847 8.02178C12.0847 8.28833 11.8637 8.50938 11.5971 8.50938Z" fill="#292D32" stroke="#292D32" stroke-width="0.3"/>
</svg>
