<svg width="18" height="18" viewBox="0 0 18 18" fill="none" xmlns="http://www.w3.org/2000/svg">
<path fill-rule="evenodd" clip-rule="evenodd" d="M12.0913 4.98126V4.363C12.0913 3.68008 11.5377 3.12646 10.8547 3.12646H7.14514C6.46222 3.12646 5.90861 3.68008 5.90861 4.363V4.98126H4.05381C3.71236 4.98126 3.43555 5.25807 3.43555 5.59953C3.43555 5.94098 3.71236 6.21779 4.05381 6.21779H4.67208V13.0187C4.67208 14.0431 5.5025 14.8735 6.52687 14.8735H11.473C12.4974 14.8735 13.3278 14.0431 13.3278 13.0187V6.21779H13.9461C14.2875 6.21779 14.5643 5.94098 14.5643 5.59953C14.5643 5.25807 14.2875 4.98126 13.9461 4.98126H12.0913ZM10.8547 4.363H7.14514V4.98126H10.8547V4.363ZM12.0913 6.21779H5.90861V13.0187C5.90861 13.3602 6.18542 13.637 6.52687 13.637H11.473C11.8145 13.637 12.0913 13.3602 12.0913 13.0187V6.21779Z" fill="#FF0046"/>
</svg>
