<svg width="18" height="18" viewBox="0 0 18 18" fill="none" xmlns="http://www.w3.org/2000/svg">
<path d="M14.4445 9.00005C14.4445 10.2319 11.8856 11.7121 8.99523 11.7223C6.1246 11.7325 3.55547 10.24 3.55547 9.00005C3.55547 7.75802 6.11031 6.2737 8.99795 6.27779C11.8938 6.28187 14.4445 7.76142 14.4445 9.00005ZM8.99999 4.91666C5.56858 4.91189 2.19434 6.74466 2.19434 9.00005C2.19434 11.2554 5.58627 13.095 8.99999 13.0834C12.4137 13.0719 15.8056 11.2554 15.8056 9.00005C15.8056 6.74466 12.4314 4.92142 8.99999 4.91666ZM8.99999 6.27779C7.49653 6.27779 6.27773 7.49658 6.27773 9.00005C6.27773 10.5035 7.49653 11.7223 8.99999 11.7223C10.5035 11.7223 11.7223 10.5035 11.7223 9.00005C11.7223 7.49658 10.5035 6.27779 8.99999 6.27779ZM8.99999 7.63892C9.75172 7.63892 10.3611 8.24832 10.3611 9.00005C10.3611 9.75178 9.75172 10.3612 8.99999 10.3612C8.24826 10.3612 7.63886 9.75178 7.63886 9.00005C7.63886 8.24832 8.24826 7.63892 8.99999 7.63892Z" fill="#333333"/>
</svg>
